<?xml version="1.0" encoding="UTF-8"?> <svg xmlns="http://www.w3.org/2000/svg" xmlns:xlink="http://www.w3.org/1999/xlink" width="420.74" height="105.027" viewBox="0 0 420.74 105.027"><defs><clipPath id="a"><rect width="165.32" height="105.027" transform="translate(0 0)" fill="#fff" stroke="#707070" stroke-width="1"></rect></clipPath><linearGradient id="b" x1="-0.004" y1="0.403" x2="0.862" y2="0.574" gradientUnits="objectBoundingBox"><stop offset="0" stop-color="#21dbaa"></stop><stop offset="0.072" stop-color="#17d0bc"></stop><stop offset="0.227" stop-color="#06bbe1"></stop><stop offset="0.309" stop-color="#00b4ef"></stop><stop offset="0.387" stop-color="#01a7ec"></stop><stop offset="0.529" stop-color="#0487e4"></stop><stop offset="0.646" stop-color="#0768dd"></stop><stop offset="1" stop-color="#5f1ae5"></stop></linearGradient></defs><g transform="translate(-525.48 -1734.434)"><g transform="translate(203.601 865.41)"><g transform="translate(422.739 869.024)" clip-path="url(#a)"><g transform="translate(12.349 8.827)"><g transform="translate(59.348)"><path d="M584.541,380.534V362.563H604.1v17.971Zm0,10.649V452.5H604.1V391.184Zm54.306,59.1a42.533,42.533,0,0,0,15.741-7.865,38.221,38.221,0,0,0,10.981-14.608A52.268,52.268,0,0,0,669.5,407.27a51,51,0,0,0-3.889-20.13,37.941,37.941,0,0,0-10.851-14.4,41.652,41.652,0,0,0-15.82-7.794,69.188,69.188,0,0,0-17.562-2.144h-6.47v17.731h6.47a49.5,49.5,0,0,1,12.8,1.562,21.58,21.58,0,0,1,8.575,4.356,19.132,19.132,0,0,1,5.29,7.672c1.461,3.411,1.949,7.834,1.949,13.146,0,5.506-.506,10.078-2,13.587A19.448,19.448,0,0,1,642.6,428.7a22.4,22.4,0,0,1-8.662,4.479,46.956,46.956,0,0,1-12.559,1.587h-6.47V452.5h6.47A66.581,66.581,0,0,0,638.847,450.288Z" transform="translate(-584.541 -362.563)"></path></g><g transform="translate(133.92 85.49)"><path d="M880.346,704.508V700.55h-1.41v-.487h3.354v.487h-1.416v3.958Z" transform="translate(-878.936 -700.063)"></path><path d="M894.026,704.508v-4.445h.692l1.4,3.779h.012l1.375-3.779h.7v4.445h-.522v-3.6h-.012q-.05.176-.122.386c-.048.14-.1.284-.151.433l-1.062,2.779h-.474l-1.062-2.779c-.029-.073-.055-.141-.076-.206s-.044-.128-.066-.192-.044-.131-.066-.2-.045-.149-.07-.238h-.012v3.615Z" transform="translate(-890.204 -700.063)"></path></g><g transform="translate(0 28.621)"><path d="M350.244,537.027l22.36-31.853-20.758-29.622h6.462l17.327,25.276,17.442-25.276h6.348L378.551,505.06l22.36,31.967h-6.4L375.52,509.521l-18.986,27.507Z" transform="translate(-350.244 -475.552)" fill="url(#b)"></path></g></g></g></g><path d="M-89.52,0h1.944V-8.88H-89.52ZM-85.9,0h2.724C-80.5,0-78.42-1.152-78.42-4.488c0-3.24-2.04-4.392-4.752-4.392H-85.9Zm1.944-1.584V-7.248h.888c1.944,0,2.688.888,2.688,2.784,0,2.016-.732,2.88-2.664,2.88ZM-77.256,0h6.264V-1.584H-75.3V-3.792h2.964V-5.34H-75.3V-7.248h4.092V-8.88h-6.048ZM-69.9,0h1.8V-5.712h.024L-64.2,0h1.8V-8.88h-1.8v5.664h-.024l-3.72-5.664H-69.9Zm11.076,0h1.956V-7.248h2.652V-8.88h-7.248v1.632h2.64Zm5.64,0h1.944V-8.88h-1.944Zm3.624,0H-47.6V-3.54h2.784V-5.088H-47.6v-2.16h3.912V-8.88H-49.56Zm9.048,0h1.944V-3.768L-35.5-8.88h-1.992l-2.04,3.456L-41.556-8.88h-2.016l3.06,5.112ZM-28.74.168a2.446,2.446,0,0,0,2.316-1.392h.024V0h1.572V-4.452h-3.408V-3h1.548a1.788,1.788,0,0,1-1.824,1.6c-.948,0-2.148-.624-2.148-3.108s1.344-2.916,2.064-2.916c.876,0,1.44.48,1.812,1.716L-25-6.2a3.353,3.353,0,0,0-3.588-2.844c-2.5,0-4.044,1.788-4.044,4.572C-32.628-1.8-31.428.168-28.74.168Zm4.6-.168h1.8l.684-1.98h3.024l.66,1.98H-16L-19.14-8.916H-21Zm2.964-3.4,1.044-3.024h.024l1.02,3.024ZM-15.12,0h1.944V-3.156h1.26c1.776,0,3.648-.492,3.648-2.88,0-2.34-1.728-2.844-3.624-2.844H-15.12Zm1.944-4.668V-7.284h1.332c1.224,0,1.668.468,1.668,1.3,0,.852-.456,1.32-1.668,1.32ZM-4.092.168C-1.62.168-.54-1.1-.54-2.532-.54-4.368-2.2-4.86-3.756-5.28-4.92-5.6-5.58-5.856-5.58-6.564c0-.528.456-.888,1.284-.888a2.645,2.645,0,0,1,2.184,1.26L-.756-7.224A3.989,3.989,0,0,0-4.284-9.048c-1.908,0-3.2,1-3.2,2.652,0,1.86,1.656,2.268,3.24,2.712,1.164.324,1.8.612,1.8,1.284S-3.1-1.38-4-1.38A2.636,2.636,0,0,1-6.4-2.892l-1.476.876A3.974,3.974,0,0,0-4.092.168Z" transform="translate(615 1802)" fill="#aaa"></path><path d="M.912,0H2.868V-3.54H5.652V-5.088H2.868v-2.16H6.78V-8.88H.912ZM7.8,0H9.744V-8.88H7.8Zm3.624,0h1.8V-5.712h.024L17.124,0h1.8V-8.88h-1.8v5.664H17.1L13.38-8.88H11.424Zm9.084,0h2.724c2.676,0,4.752-1.152,4.752-4.488,0-3.24-2.04-4.392-4.752-4.392H20.508Zm1.944-1.584V-7.248h.888c1.944,0,2.688.888,2.688,2.784,0,2.016-.732,2.88-2.664,2.88ZM35.9.168C38.04.168,40.08-1.32,40.08-4.44S38.04-9.048,35.9-9.048,31.716-7.56,31.716-4.44,33.756.168,35.9.168Zm0-1.572c-1.38,0-2.232-1.176-2.232-3.036s.852-2.988,2.232-2.988S38.136-6.3,38.136-4.44,37.272-1.4,35.9-1.4ZM41.256,0H43.2V-3.156h1.26c1.776,0,3.648-.492,3.648-2.88,0-2.34-1.728-2.844-3.624-2.844H41.256ZM43.2-4.668V-7.284h1.332c1.224,0,1.668.468,1.668,1.3,0,.852-.456,1.32-1.668,1.32ZM49.128,0h1.944V-3.156h1.26c1.776,0,3.648-.492,3.648-2.88,0-2.34-1.728-2.844-3.624-2.844H49.128Zm1.944-4.668V-7.284H52.4c1.224,0,1.668.468,1.668,1.3,0,.852-.456,1.32-1.668,1.32Zm9.7,4.836c2.136,0,4.176-1.488,4.176-4.608S62.9-9.048,60.768-9.048,56.58-7.56,56.58-4.44,58.62.168,60.768.168Zm0-1.572c-1.38,0-2.232-1.176-2.232-3.036s.852-2.988,2.232-2.988S63-6.3,63-4.44,62.136-1.4,60.768-1.4ZM66.12,0h1.92V-3.348h1.128L71.016,0H73.08L71.1-3.6a2.373,2.373,0,0,0,1.848-2.532c0-1.968-1.308-2.748-3.492-2.748H66.12Zm1.92-4.86V-7.284h1.332c1.128,0,1.668.324,1.668,1.2,0,.9-.54,1.224-1.668,1.224ZM76.092,0h1.956V-7.248H80.7V-8.88H73.452v1.632h2.64ZM85.08.144c2.472,0,3.576-1.368,3.576-3.552V-8.88h-1.92v5.436c0,1.3-.48,2-1.632,2s-1.656-.72-1.656-2V-8.88H81.492V-3.4C81.492-1.224,82.608.144,85.08.144ZM90.1,0h1.8V-5.712h.024L95.8,0h1.8V-8.88H95.8v5.664h-.024L92.052-8.88H90.1Zm9.18,0h1.944V-8.88H99.276Zm5.616,0h1.956V-7.248H109.5V-8.88h-7.248v1.632h2.64Zm5.64,0h1.944V-8.88h-1.944Zm3.624,0h6.264V-1.584h-4.308V-3.792h2.964V-5.34h-2.964V-7.248H120.2V-8.88h-6.048Zm10.512.168c2.472,0,3.552-1.272,3.552-2.7,0-1.836-1.656-2.328-3.216-2.748-1.164-.324-1.824-.576-1.824-1.284,0-.528.456-.888,1.284-.888a2.645,2.645,0,0,1,2.184,1.26L128-7.224a3.989,3.989,0,0,0-3.528-1.824c-1.908,0-3.2,1-3.2,2.652,0,1.86,1.656,2.268,3.24,2.712,1.164.324,1.8.612,1.8,1.284s-.648,1.02-1.548,1.02a2.636,2.636,0,0,1-2.4-1.512l-1.476.876A3.974,3.974,0,0,0,124.668.168Z" transform="translate(818 1802)" fill="#aaa"></path></g></svg> 